<?xml version="1.0" standalone="no"?>
<!DOCTYPE svg PUBLIC "-//W3C//DTD SVG 20010904//EN"
 "http://www.w3.org/TR/2001/REC-SVG-20010904/DTD/svg10.dtd">
<svg version="1.0" xmlns="http://www.w3.org/2000/svg"
 width="400.000000pt" height="400.000000pt" viewBox="0 0 400.000000 400.000000"
 preserveAspectRatio="xMidYMid meet">
<metadata>
Created by potrace 1.11, written by Peter Selinger 2001-2013
</metadata>
<g transform="translate(0.000000,400.000000) scale(0.100000,-0.100000)"
fill="#61DAFB" stroke="none">
<path d="M517 3986 c-80 -29 -134 -83 -163 -163 -20 -57 -20 -3590 0 -3646 22
-62 57 -103 115 -139 l55 -33 1456 -2 c1117 -2 1465 0 1500 10 56 15 142 97
161 153 19 54 27 3539 8 3624 -20 95 -74 159 -161 192 -45 17 -120 18 -1490
17 -1183 0 -1450 -2 -1481 -13z m2940 -189 l28 -27 0 -1756 c0 -1360 -3 -1763
-12 -1786 -7 -16 -25 -34 -41 -41 -23 -9 -352 -12 -1445 -12 -1360 0 -1416 1
-1435 19 -12 10 -25 30 -29 44 -5 15 -9 815 -8 1779 l0 1751 24 26 c13 14 33
26 45 28 11 2 657 3 1433 3 l1413 0 27 -28z"/>
<path d="M1855 3561 c-33 -9 -69 -22 -80 -28 -67 -34 -82 -44 -119 -73 -164
-132 -236 -345 -191 -564 14 -68 62 -159 112 -217 l23 -25 -59 1 c-115 2 -183
-35 -222 -120 -16 -34 -19 -67 -19 -212 0 -94 4 -183 10 -197 9 -25 56 -56 84
-56 9 0 30 13 48 29 l32 28 2 169 c1 93 2 172 3 177 0 4 235 7 521 7 l520 0 0
-22 c1 -13 2 -94 3 -180 l2 -156 30 -26 c17 -14 38 -26 48 -26 30 0 75 32 86
59 13 33 12 334 -1 385 -22 90 -112 144 -233 141 l-53 -1 27 36 c105 136 144
312 104 470 -46 180 -187 333 -361 393 -80 27 -237 31 -317 8z m277 -177 c76
-25 146 -81 193 -154 62 -99 71 -251 22 -353 -99 -201 -332 -278 -519 -172
-219 124 -259 417 -81 590 105 102 247 135 385 89z"/>
<path d="M889 1823 c-37 -15 -53 -51 -45 -96 13 -71 -67 -67 1151 -67 1213 0
1148 -4 1160 63 8 41 -8 82 -37 98 -33 18 -2187 20 -2229 2z"/>
<path d="M905 1482 c-72 -14 -89 -124 -24 -157 24 -13 181 -15 1112 -15 731 0
1094 3 1114 10 65 23 71 118 10 152 -17 10 -262 12 -1107 13 -597 0 -1094 -1
-1105 -3z"/>
<path d="M903 1132 c-13 -2 -32 -15 -43 -29 -36 -47 -21 -114 31 -132 45 -15
2188 -15 2223 0 40 18 58 78 36 119 -24 45 1 44 -1140 45 -597 0 -1095 -1
-1107 -3z"/>
<path d="M900 782 c-75 -23 -81 -136 -9 -161 44 -15 2172 -16 2216 -1 55 19
69 90 29 137 l-24 28 -1099 1 c-604 0 -1105 -1 -1113 -4z"/>
</g>
</svg>
